# xmcd
#
# Track frame offsets: 
#        150
#        18508
#        29216
#        48975
#        65464
#        80446
#        96430
#        112708
#        131112
#        150786
#        177536
#        190736
#        214765
#        227425
#
# Disc length: 3299 seconds
#
# Revision: 0
# Processed by: cddbd v1.5.2PL0 Copyright (c) Steve Scherf et al.
# Submitted via: ExactAudioCopy v0.95b1
#
DISCID=b50ce10e
DTITLE=Vitriin - Avamata kiri
DYEAR=2017
DGENRE=Country
TTITLE0=Akordion
TTITLE1=Vana õunapuu
TTITLE2=Õitsvad pärnad
TTITLE3=Suveniir
TTITLE4=Mandoliinid öös
TTITLE5=Kahekesi
TTITLE6=Rumal süda
TTITLE7=Avamata kiri
TTITLE8=Tuulehoog
TTITLE9=Head ööd, mu ema
TTITLE10=Jooksupolka
TTITLE11=Öine serenaad
TTITLE12=Hüvasti, tantsiv tuul
TTITLE13=Üksindus, vein ja kitarr
EXTD=
EXTT0=
EXTT1=
EXTT2=
EXTT3=
EXTT4=
EXTT5=
EXTT6=
EXTT7=
EXTT8=
EXTT9=
EXTT10=
EXTT11=
EXTT12=
EXTT13=
PLAYORDER=
